<svg width="204" height="105" viewBox="0 0 204 105" fill="none" xmlns="http://www.w3.org/2000/svg">
<path d="M166.553 48.4508V20H167.794V48.4508H166.553ZM169.036 48.4508V20L174 20V48.4508H169.036Z" fill="#C99D3E"/>
<path d="M152.898 48.4508V20H155.38V48.4508H152.898ZM160.345 48.4508V20H161.586V48.4508H160.345ZM162.827 48.4508V20H164.068V48.4508H162.827Z" fill="#C99D3E"/>
<path d="M139.243 48.4508V20H140.484V48.4508H139.243ZM144.207 48.4508V20H149.172V48.4508H144.207ZM150.413 48.4508V20H151.654V48.4508H150.413Z" fill="#C99D3E"/>
<path d="M125.587 48.4508V20H126.828V48.4508H125.587ZM131.793 48.4508V20H134.275V48.4508H131.793ZM135.516 48.4508V20H136.757V48.4508H135.516Z" fill="#C99D3E"/>
<path d="M111.932 48.4508V20H113.173V48.4508H111.932ZM115.655 48.4508V20H120.62V48.4508H115.655ZM121.861 48.4508V20H123.102V48.4508H121.861Z" fill="#C99D3E"/>
<path d="M98.2767 48.4508V20H99.5178V48.4508H98.2767ZM102 48.4508V20H103.241V48.4508H102ZM104.482 48.4508V20H106.964V48.4508H104.482Z" fill="#C99D3E"/>
<path d="M84.6214 48.4508V20H85.8625V48.4508H84.6214ZM87.1036 48.4508V20L90.8269 20V48.4508L87.1036 48.4508ZM94.5502 48.4508V20H97.0324V48.4508H94.5502Z" fill="#C99D3E"/>
<path d="M70.966 48.4508V20H73.4482V48.4508H70.966ZM74.6893 48.4508V20H77.1715V48.4508H74.6893ZM79.6537 48.4508V20H82.1359V48.4508H79.6537Z" fill="#C99D3E"/>
<path d="M57.3107 48.4508V20H58.5518V48.4508H57.3107ZM62.2751 48.4508V20H67.2395V48.4508H62.2751ZM68.4806 48.4508V20H69.7217V48.4508H68.4806Z" fill="#C99D3E"/>
<path d="M43.6553 48.4508V20H48.6197V48.4508H43.6553ZM51.1019 48.4508V20H52.343V48.4508H51.1019ZM53.5841 48.4508V20H54.8252V48.4508H53.5841Z" fill="#C99D3E"/>
<path d="M30 48.4508L30 20H32.4822V48.4508H30ZM33.7233 48.4508V20H37.4466V48.4508H33.7233ZM41.1699 48.4508V20H42.411V48.4508H41.1699Z" fill="#C99D3E"/>
<path d="M173.533 62.1045C172.919 62.6716 172.227 62.9552 171.459 62.9552C170.742 62.9552 170.23 62.7015 169.922 62.194C169.615 61.6567 169.461 60.8208 169.461 59.6865C169.461 59.4775 169.474 59.1492 169.5 58.7014L169.653 56.1939H168.194V55.2088H169.692L169.807 53.1938L170.921 52.9699H171.075V53.0594C171.023 53.149 170.985 53.2386 170.959 53.3281C170.908 53.4177 170.883 53.5371 170.883 53.6863L170.729 55.2088H172.88V56.1939H170.652L170.537 58.7909C170.511 59.2387 170.498 59.5223 170.498 59.6417C170.498 60.5373 170.588 61.1492 170.767 61.4776C170.947 61.7761 171.228 61.9253 171.613 61.9253C171.894 61.9253 172.163 61.8656 172.419 61.7462C172.65 61.6268 172.919 61.4328 173.226 61.1641L173.533 62.1045Z" fill="#C99D3E"/>
<path d="M160.969 61.8358H162.659V56.1939H161.046V55.2088H163.658V61.8358H165.195V62.8209H160.969V61.8358ZM163.12 53.5968C162.915 53.5968 162.736 53.5221 162.582 53.3729C162.454 53.1938 162.39 52.9848 162.39 52.746C162.39 52.5072 162.454 52.3132 162.582 52.1639C162.71 51.9848 162.89 51.8952 163.12 51.8952C163.299 51.8952 163.466 51.9848 163.62 52.1639C163.773 52.343 163.85 52.537 163.85 52.746C163.85 52.9848 163.773 53.1938 163.62 53.3729C163.466 53.5221 163.299 53.5968 163.12 53.5968Z" fill="#C99D3E"/>
<path d="M155.473 63C154.372 63 153.45 62.597 152.707 61.791L153.283 60.6716L153.36 60.4925L153.475 60.582C153.475 60.6119 153.475 60.6567 153.475 60.7164C153.501 60.8059 153.527 60.8805 153.552 60.9402C153.603 61.0298 153.655 61.1194 153.706 61.2089C153.936 61.4477 154.192 61.6418 154.474 61.791C154.756 61.9104 155.102 61.9701 155.511 61.9701C156.024 61.9701 156.433 61.8656 156.741 61.6567C157.022 61.4477 157.163 61.1492 157.163 60.7611C157.163 60.4328 157.048 60.1641 156.817 59.9551C156.587 59.7462 156.152 59.5372 155.511 59.3283C153.872 58.7611 153.053 57.97 153.053 56.9551C153.053 56.358 153.27 55.8953 153.706 55.567C154.116 55.2088 154.705 55.0296 155.473 55.0296C156.062 55.0296 156.561 55.1341 156.971 55.3431C157.381 55.5222 157.752 55.8207 158.085 56.2386L157.471 57.0446L157.394 57.179L157.317 57.0894C157.317 56.97 157.291 56.8804 157.24 56.8207C157.214 56.7312 157.15 56.6416 157.048 56.5521C156.817 56.3431 156.574 56.1939 156.318 56.1043C156.036 55.9849 155.767 55.9252 155.511 55.9252C155.102 55.9252 154.756 56.0147 154.474 56.1939C154.218 56.3431 154.09 56.567 154.09 56.8655C154.09 57.164 154.231 57.4178 154.513 57.6267C154.769 57.8655 155.242 58.1044 155.934 58.3432C156.753 58.6417 157.33 58.9551 157.663 59.2835C158.021 59.6119 158.2 60.0596 158.2 60.6268C158.2 61.3134 157.97 61.8806 157.509 62.3283C157.048 62.7761 156.369 63 155.473 63Z" fill="#C99D3E"/>
<path d="M145.29 55.2088H146.289V56.5521C146.545 56.1043 146.865 55.7312 147.249 55.4326C147.634 55.164 148.043 55.0296 148.479 55.0296C149.068 55.0296 149.542 55.2834 149.9 55.7909C150.233 56.3282 150.4 57.1342 150.4 58.2088V62.8209L149.401 62.8209V58.2536C149.401 57.4775 149.298 56.9252 149.093 56.5969C148.863 56.2386 148.568 56.0595 148.21 56.0595C147.903 56.0595 147.608 56.164 147.326 56.373C147.019 56.5819 146.763 56.8655 146.558 57.2237C146.379 57.582 146.289 57.9849 146.289 58.4327V62.8209H145.29V55.2088Z" fill="#C99D3E"/>
<path d="M140.102 55.0296C141.024 55.0296 141.728 55.3132 142.214 55.8804C142.701 56.4476 142.944 57.4178 142.944 58.7909V62.8209H141.83V61.6567C141.446 62.5522 140.703 63 139.602 63C138.885 63 138.322 62.806 137.912 62.4179C137.502 62.0298 137.297 61.5224 137.297 60.8955C137.297 60.3581 137.451 59.8954 137.758 59.5074C138.04 59.1193 138.437 58.8059 138.949 58.567C139.436 58.3581 139.986 58.2536 140.601 58.2536C141.139 58.2536 141.625 58.2835 142.061 58.3432C142.01 57.5073 141.818 56.9103 141.485 56.5521C141.152 56.1939 140.665 56.0147 140.025 56.0147C139.692 56.0147 139.385 56.0894 139.103 56.2386C138.796 56.3879 138.514 56.5969 138.258 56.8655L137.758 56.1043C138.373 55.3879 139.154 55.0296 140.102 55.0296ZM139.717 62.1045C140.435 62.1045 140.998 61.8507 141.408 61.3432C141.818 60.8656 142.035 60.179 142.061 59.2835C141.625 59.1939 141.164 59.1492 140.678 59.1492C139.961 59.1492 139.385 59.2984 138.949 59.5969C138.539 59.8656 138.335 60.2835 138.335 60.8507C138.335 61.6865 138.796 62.1045 139.717 62.1045Z" fill="#C99D3E"/>
<path d="M133.761 55.0296C134.452 55.0296 135.028 55.3132 135.489 55.8804L135.028 56.776L134.99 56.9551L134.875 56.8655C134.849 56.7461 134.823 56.6566 134.798 56.5969C134.747 56.5073 134.657 56.4177 134.529 56.3282C134.298 56.1491 134.017 56.0595 133.684 56.0595C133.351 56.0595 133.031 56.164 132.723 56.373C132.416 56.5521 132.173 56.8506 131.993 57.2685C131.789 57.6864 131.686 58.1939 131.686 58.7909V62.8209H130.649V55.2088H131.725L131.686 56.5969C131.865 56.1192 132.147 55.7312 132.531 55.4326C132.915 55.164 133.325 55.0296 133.761 55.0296Z" fill="#C99D3E"/>
<path d="M124.269 53.4624H121.772V52.4326H127.919V53.4624H125.307V62.8209H124.269V53.4624Z" fill="#C99D3E"/>
<path d="M109.587 63C108.485 63 107.564 62.597 106.821 61.791L107.397 60.6716L107.474 60.4925L107.589 60.582C107.589 60.6119 107.589 60.6567 107.589 60.7164C107.615 60.8059 107.64 60.8805 107.666 60.9402C107.717 61.0298 107.768 61.1194 107.82 61.2089C108.05 61.4477 108.306 61.6418 108.588 61.791C108.87 61.9104 109.215 61.9701 109.625 61.9701C110.137 61.9701 110.547 61.8656 110.854 61.6567C111.136 61.4477 111.277 61.1492 111.277 60.7611C111.277 60.4328 111.162 60.1641 110.931 59.9551C110.701 59.7462 110.265 59.5372 109.625 59.3283C107.986 58.7611 107.167 57.97 107.167 56.9551C107.167 56.358 107.384 55.8953 107.82 55.567C108.229 55.2088 108.818 55.0296 109.587 55.0296C110.176 55.0296 110.675 55.1341 111.085 55.3431C111.495 55.5222 111.866 55.8207 112.199 56.2386L111.584 57.0446L111.507 57.179L111.431 57.0894C111.431 56.97 111.405 56.8804 111.354 56.8207C111.328 56.7312 111.264 56.6416 111.162 56.5521C110.931 56.3431 110.688 56.1939 110.432 56.1043C110.15 55.9849 109.881 55.9252 109.625 55.9252C109.215 55.9252 108.87 56.0147 108.588 56.1939C108.332 56.3431 108.204 56.567 108.204 56.8655C108.204 57.164 108.345 57.4178 108.626 57.6267C108.882 57.8655 109.356 58.1044 110.048 58.3432C110.867 58.6417 111.443 58.9551 111.776 59.2835C112.135 59.6119 112.314 60.0596 112.314 60.6268C112.314 61.3134 112.084 61.8806 111.623 62.3283C111.162 62.7761 110.483 63 109.587 63Z" fill="#C99D3E"/>
<path d="M99.4041 55.2088H100.403V56.5521C100.659 56.1043 100.979 55.7312 101.363 55.4326C101.747 55.164 102.157 55.0296 102.593 55.0296C103.182 55.0296 103.655 55.2834 104.014 55.7909C104.347 56.3282 104.513 57.1342 104.513 58.2088V62.8209H103.515V58.2536C103.515 57.4775 103.412 56.9252 103.207 56.5969C102.977 56.2386 102.682 56.0595 102.324 56.0595C102.016 56.0595 101.722 56.164 101.44 56.373C101.133 56.5819 100.877 56.8655 100.672 57.2237C100.493 57.582 100.403 57.9849 100.403 58.4327V62.8209H99.4041V55.2088Z" fill="#C99D3E"/>
<path d="M94.2923 62.9552C93.7032 62.9552 93.1782 62.791 92.7173 62.4627C92.2819 62.1343 91.9361 61.6716 91.68 61.0746C91.3983 60.4775 91.2575 59.791 91.2575 59.0148C91.2575 58.2387 91.3983 57.5521 91.68 56.9551C91.9361 56.358 92.2819 55.8953 92.7173 55.567C93.1782 55.2088 93.7032 55.0296 94.2923 55.0296C94.8813 55.0296 95.3935 55.2088 95.8289 55.567C96.2898 55.8953 96.6484 56.358 96.9045 56.9551C97.1606 57.5521 97.2886 58.2387 97.2886 59.0148C97.2886 59.791 97.1606 60.4775 96.9045 61.0746C96.6484 61.6716 96.2898 62.1343 95.8289 62.4627C95.3935 62.791 94.8813 62.9552 94.2923 62.9552ZM94.2923 61.9701C94.6508 61.9701 94.9837 61.8358 95.2911 61.5671C95.5728 61.3283 95.8033 60.985 95.9825 60.5373C96.1362 60.0596 96.213 59.5372 96.213 58.97C96.213 58.1044 96.0338 57.4028 95.6752 56.8655C95.3167 56.3282 94.8557 56.0595 94.2923 56.0595C93.7288 56.0595 93.2679 56.3282 92.9093 56.8655C92.5508 57.4028 92.3715 58.1044 92.3715 58.97C92.3715 59.5372 92.4483 60.0596 92.602 60.5373C92.7813 60.985 93.0118 61.3283 93.2935 61.5671C93.5752 61.8358 93.9081 61.9701 94.2923 61.9701Z" fill="#C99D3E"/>
<path d="M84.4938 61.8358H86.1841V56.1939H84.5706V55.2088H87.1829V61.8358H88.7195V62.8209H84.4938V61.8358ZM86.645 53.5968C86.4402 53.5968 86.2609 53.5221 86.1072 53.3729C85.9792 53.1938 85.9152 52.9848 85.9152 52.746C85.9152 52.5072 85.9792 52.3132 86.1072 52.1639C86.2353 51.9848 86.4146 51.8952 86.645 51.8952C86.8243 51.8952 86.9908 51.9848 87.1444 52.1639C87.2981 52.343 87.3749 52.537 87.3749 52.746C87.3749 52.9848 87.2981 53.1938 87.1444 53.3729C86.9908 53.5221 86.8243 53.5968 86.645 53.5968Z" fill="#C99D3E"/>
<path d="M81.7637 62.1045C81.1491 62.6716 80.4576 62.9552 79.6893 62.9552C78.9722 62.9552 78.46 62.7015 78.1527 62.194C77.8454 61.6567 77.6917 60.8208 77.6917 59.6865C77.6917 59.4775 77.7045 59.1492 77.7301 58.7014L77.8838 56.1939H76.424V55.2088H77.9222L78.0374 53.1938L79.1515 52.9699H79.3051V53.0594C79.2539 53.149 79.2155 53.2386 79.1899 53.3281C79.1387 53.4177 79.1131 53.5371 79.1131 53.6863L78.9594 55.2088H81.1107V56.1939H78.8826L78.7673 58.7909C78.7417 59.2387 78.7289 59.5223 78.7289 59.6417C78.7289 60.5373 78.8186 61.1492 78.9978 61.4776C79.1771 61.7761 79.4588 61.9253 79.843 61.9253C80.1247 61.9253 80.3936 61.8656 80.6497 61.7462C80.8802 61.6268 81.1491 61.4328 81.4564 61.1641L81.7637 62.1045Z" fill="#C99D3E"/>
<path d="M71.2738 55.0296C72.1957 55.0296 72.9 55.3132 73.3866 55.8804C73.8732 56.4476 74.1165 57.4178 74.1165 58.7909V62.8209H73.0025V61.6567C72.6183 62.5522 71.8756 63 70.7744 63C70.0573 63 69.4939 62.806 69.0841 62.4179C68.6744 62.0298 68.4695 61.5224 68.4695 60.8955C68.4695 60.3581 68.6231 59.8954 68.9305 59.5074C69.2122 59.1193 69.6091 58.8059 70.1213 58.567C70.6079 58.3581 71.1585 58.2536 71.7732 58.2536C72.311 58.2536 72.7976 58.2835 73.2329 58.3432C73.1817 57.5073 72.9896 56.9103 72.6567 56.5521C72.3238 56.1939 71.8372 56.0147 71.1969 56.0147C70.864 56.0147 70.5567 56.0894 70.275 56.2386C69.9677 56.3879 69.686 56.5969 69.4299 56.8655L68.9305 56.1043C69.5451 55.3879 70.3262 55.0296 71.2738 55.0296ZM70.8896 62.1045C71.6067 62.1045 72.1701 61.8507 72.5799 61.3432C72.9896 60.8656 73.2073 60.179 73.2329 59.2835C72.7976 59.1939 72.3366 59.1492 71.85 59.1492C71.1329 59.1492 70.5567 59.2984 70.1213 59.5969C69.7116 59.8656 69.5067 60.2835 69.5067 60.8507C69.5067 61.6865 69.9677 62.1045 70.8896 62.1045Z" fill="#C99D3E"/>
<path d="M60.8607 52.4326H61.8211L65.5473 60.1343V52.4326H66.6613V52.5669C66.5845 52.6266 66.5461 52.7012 66.5461 52.7908C66.5205 52.8505 66.5077 52.9848 66.5077 53.1938V62.8209H65.7394L61.7826 54.6714V62.8209H60.8607V52.4326Z" fill="#C99D3E"/>
<path d="M48.4061 62.9552C47.817 62.9552 47.292 62.791 46.831 62.4627C46.3957 62.1343 46.0499 61.6716 45.7938 61.0746C45.5121 60.4775 45.3713 59.791 45.3713 59.0148C45.3713 58.2387 45.5121 57.5521 45.7938 56.9551C46.0499 56.358 46.3957 55.8953 46.831 55.567C47.292 55.2088 47.817 55.0296 48.4061 55.0296C48.9951 55.0296 49.5073 55.2088 49.9427 55.567C50.4036 55.8953 50.7622 56.358 51.0183 56.9551C51.2744 57.5521 51.4024 58.2387 51.4024 59.0148C51.4024 59.791 51.2744 60.4775 51.0183 61.0746C50.7622 61.6716 50.4036 62.1343 49.9427 62.4627C49.5073 62.791 48.9951 62.9552 48.4061 62.9552ZM48.4061 61.9701C48.7646 61.9701 49.0975 61.8358 49.4049 61.5671C49.6866 61.3283 49.917 60.985 50.0963 60.5373C50.25 60.0596 50.3268 59.5372 50.3268 58.97C50.3268 58.1044 50.1475 57.4028 49.789 56.8655C49.4305 56.3282 48.9695 56.0595 48.4061 56.0595C47.8426 56.0595 47.3817 56.3282 47.0231 56.8655C46.6646 57.4028 46.4853 58.1044 46.4853 58.97C46.4853 59.5372 46.5621 60.0596 46.7158 60.5373C46.8951 60.985 47.1256 61.3283 47.4073 61.5671C47.689 61.8358 48.0219 61.9701 48.4061 61.9701Z" fill="#C99D3E"/>
<path d="M37.4167 55.2088H38.3003L39.3759 61.3432L40.4899 55.9252H41.1046L42.4875 61.2985C42.7692 59.2387 42.9357 57.8805 42.9869 57.2237C43.0637 56.567 43.1022 55.9849 43.1022 55.4774V55.2088H44.0625C43.7808 57.776 43.4223 60.3134 42.9869 62.8209H41.9881L40.7973 57.8954L39.6448 62.8209H38.7228L37.4167 55.2088Z" fill="#C99D3E"/>
<path d="M32.497 53.4624H30V52.4326H36.1464V53.4624H33.5342L33.5342 62.8209H32.497L32.497 53.4624Z" fill="#C99D3E"/>
<path d="M57.9283 79.3636C57.9283 80.1212 57.7933 80.7805 57.5234 81.3416C57.2536 81.9003 56.8819 82.3336 56.4084 82.6413C55.9373 82.9467 55.3951 83.0994 54.782 83.0994C54.1688 83.0994 53.6255 82.9467 53.152 82.6413C52.6809 82.3336 52.3104 81.9003 52.0405 81.3416C51.773 80.7805 51.6392 80.1212 51.6392 79.3636C51.6392 78.6061 51.773 77.9479 52.0405 77.3892C52.3104 76.8281 52.6821 76.3949 53.1555 76.0895C53.629 75.7817 54.1712 75.6278 54.782 75.6278C55.3951 75.6278 55.9373 75.7817 56.4084 76.0895C56.8819 76.3949 57.2536 76.8281 57.5234 77.3892C57.7933 77.9479 57.9283 78.6061 57.9283 79.3636ZM57.282 79.3636C57.282 78.7126 57.1731 78.1551 56.9553 77.6911C56.7375 77.2247 56.4403 76.8684 56.0639 76.6222C55.6875 76.3759 55.2602 76.2528 54.782 76.2528C54.3061 76.2528 53.88 76.3759 53.5036 76.6222C53.1271 76.8684 52.8288 77.2235 52.6087 77.6875C52.3909 78.1515 52.282 78.7102 52.282 79.3636C52.282 80.0147 52.3909 80.5722 52.6087 81.0362C52.8265 81.5002 53.1236 81.8565 53.5 82.1051C53.8764 82.3513 54.3037 82.4744 54.782 82.4744C55.2602 82.4744 55.6875 82.3513 56.0639 82.1051C56.4427 81.8589 56.741 81.5038 56.9588 81.0398C57.1766 80.5734 57.2843 80.0147 57.282 79.3636ZM63.0854 79.978V80.5746H59.8787V79.978H63.0854ZM60.035 77.5455V83H59.4029V77.5455H60.035ZM63.5506 77.5455V83H62.9185V77.5455H63.5506ZM64.6967 83V82.4034H64.8672C65.0613 82.4034 65.2176 82.3679 65.3359 82.2969C65.4567 82.2235 65.5502 82.1004 65.6165 81.9276C65.6828 81.7547 65.7325 81.5192 65.7656 81.2209C65.7988 80.9226 65.8248 80.5485 65.8438 80.0987L65.9609 77.5455H69.4268V83H68.7912V78.142H66.5611L66.4581 80.3118C66.4368 80.7545 66.4013 81.1439 66.3516 81.4801C66.3042 81.8163 66.2261 82.0968 66.1172 82.3217C66.0107 82.5466 65.8615 82.7159 65.6697 82.8295C65.4804 82.9432 65.2318 83 64.924 83H64.6967ZM72.6255 83.1243C72.2965 83.1243 71.9958 83.0604 71.7235 82.9325C71.4513 82.8023 71.2347 82.6153 71.0737 82.3714C70.9127 82.1252 70.8322 81.8269 70.8322 81.4766C70.8322 81.2067 70.8831 80.9794 70.9849 80.7947C71.0867 80.6101 71.2311 80.4586 71.4181 80.3402C71.6052 80.2218 71.8265 80.1283 72.0822 80.0597C72.3379 79.991 72.6196 79.9377 72.9274 79.8999C73.2328 79.862 73.4908 79.8288 73.7015 79.8004C73.9146 79.772 74.0768 79.727 74.188 79.6655C74.2993 79.6039 74.3549 79.5045 74.3549 79.3672V79.2393C74.3549 78.8677 74.2437 78.5753 74.0211 78.3622C73.801 78.1468 73.4837 78.0391 73.0694 78.0391C72.6764 78.0391 72.3556 78.1255 72.1071 78.2983C71.8609 78.4711 71.688 78.6747 71.5886 78.9091L70.9885 78.6925C71.1116 78.3942 71.282 78.1562 71.4998 77.9787C71.7176 77.7988 71.9615 77.6697 72.2314 77.5916C72.5012 77.5111 72.7747 77.4709 73.0517 77.4709C73.26 77.4709 73.4766 77.4981 73.7015 77.5526C73.9288 77.607 74.1395 77.7017 74.3336 77.8366C74.5278 77.9692 74.6852 78.1551 74.8059 78.3942C74.9267 78.6309 74.987 78.9316 74.987 79.2962V83H74.3549V82.1371H74.3159C74.2401 82.2981 74.1277 82.4543 73.9785 82.6058C73.8294 82.7573 73.6423 82.8816 73.4174 82.9787C73.1925 83.0758 72.9286 83.1243 72.6255 83.1243ZM72.7108 82.5455C73.0469 82.5455 73.3381 82.4709 73.5843 82.3217C73.8306 82.1726 74.0199 81.9749 74.1525 81.7287C74.2875 81.4801 74.3549 81.2067 74.3549 80.9084V80.12C74.3076 80.165 74.2283 80.2053 74.117 80.2408C74.0081 80.2763 73.8815 80.3082 73.737 80.3366C73.595 80.3627 73.4529 80.3852 73.3109 80.4041C73.1689 80.4231 73.041 80.4396 72.9274 80.4538C72.6196 80.4917 72.3568 80.5509 72.139 80.6314C71.9212 80.7119 71.7543 80.8232 71.6383 80.9652C71.5223 81.1049 71.4643 81.2848 71.4643 81.505C71.4643 81.8364 71.5827 82.0933 71.8194 82.2756C72.0562 82.4555 72.3533 82.5455 72.7108 82.5455ZM77.3006 82.1016L80.1806 77.5455H80.937V83H80.3049V78.4439L77.4355 83H76.6685V77.5455H77.3006V82.1016ZM79.4561 75.7273H80.0527C80.0527 76.0658 79.9403 76.3404 79.7154 76.5511C79.4928 76.7618 79.1886 76.8672 78.8027 76.8672C78.4216 76.8672 78.1197 76.7618 77.8972 76.5511C77.6747 76.3404 77.5634 76.0658 77.5634 75.7273H78.16C78.16 75.9119 78.2097 76.0682 78.3091 76.196C78.4109 76.3215 78.5755 76.3842 78.8027 76.3842C79.03 76.3842 79.1957 76.3215 79.2999 76.196C79.4041 76.0682 79.4561 75.9119 79.4561 75.7273ZM86.2885 79.978V80.5746H83.0819V79.978H86.2885ZM83.2381 77.5455V83H82.606V77.5455H83.2381ZM86.7537 77.5455V83H86.1216V77.5455H86.7537ZM88.9403 82.8615C88.8007 82.8615 88.6799 82.8118 88.5781 82.7124C88.4787 82.6129 88.429 82.4922 88.429 82.3501C88.429 82.2105 88.4787 82.0909 88.5781 81.9915C88.6799 81.8897 88.8007 81.8388 88.9403 81.8388C89.0824 81.8388 89.2031 81.8897 89.3026 81.9915C89.402 82.0909 89.4517 82.2105 89.4517 82.3501C89.4517 82.4448 89.428 82.5312 89.3807 82.6094C89.3357 82.6851 89.2741 82.7467 89.196 82.794C89.1203 82.839 89.035 82.8615 88.9403 82.8615ZM88.9403 78.9268C88.8007 78.9268 88.6799 78.8771 88.5781 78.7777C88.4787 78.6783 88.429 78.5575 88.429 78.4155C88.429 78.2758 88.4787 78.1562 88.5781 78.0568C88.6799 77.955 88.8007 77.9041 88.9403 77.9041C89.0824 77.9041 89.2031 77.955 89.3026 78.0568C89.402 78.1562 89.4517 78.2758 89.4517 78.4155C89.4517 78.5102 89.428 78.5966 89.3807 78.6747C89.3357 78.7505 89.2741 78.812 89.196 78.8594C89.1203 78.9044 89.035 78.9268 88.9403 78.9268Z" fill="white"/>
<path d="M99.2315 83.1207C98.6705 83.1184 98.1911 82.9704 97.7933 82.6768C97.3956 82.3833 97.0914 81.956 96.8807 81.3949C96.67 80.8338 96.5646 80.1579 96.5646 79.3672C96.5646 78.5788 96.67 77.9053 96.8807 77.3466C97.0938 76.7879 97.3991 76.3617 97.7969 76.0682C98.197 75.7746 98.6752 75.6278 99.2315 75.6278C99.7879 75.6278 100.265 75.7758 100.663 76.0717C101.06 76.3653 101.365 76.7914 101.575 77.3501C101.788 77.9065 101.895 78.5788 101.895 79.3672C101.895 80.1603 101.79 80.8374 101.579 81.3984C101.368 81.9571 101.064 82.3845 100.666 82.6804C100.268 82.974 99.7902 83.1207 99.2315 83.1207ZM99.2315 82.1726C99.724 82.1726 100.109 81.9323 100.386 81.4517C100.665 80.9711 100.805 80.2763 100.805 79.3672C100.805 78.7635 100.741 78.2533 100.613 77.8366C100.487 77.4176 100.306 77.1004 100.07 76.8849C99.8352 76.6671 99.5559 76.5582 99.2315 76.5582C98.7415 76.5582 98.3568 76.7997 98.0774 77.2827C97.7981 77.7656 97.6572 78.4605 97.6548 79.3672C97.6548 79.9732 97.7176 80.4858 97.843 80.9048C97.9709 81.3215 98.152 81.6375 98.3864 81.853C98.6207 82.0661 98.9025 82.1726 99.2315 82.1726Z" fill="#C99D3E"/>
<rect x="108" y="73" width="66" height="12" rx="2" fill="#C99D3E" fill-opacity="0.16"/>
<path d="M115.034 76.0234V81H114.183V76.0234H115.034ZM116.596 76.0234V76.707H112.634V76.0234H116.596ZM118.472 81.0684C118.199 81.0684 117.951 81.0239 117.73 80.9351C117.512 80.8439 117.325 80.7174 117.17 80.5557C117.017 80.3939 116.9 80.2036 116.818 79.9849C116.736 79.7661 116.695 79.5303 116.695 79.2773V79.1406C116.695 78.8512 116.737 78.5892 116.821 78.3545C116.906 78.1198 117.023 77.9193 117.173 77.7529C117.324 77.5843 117.501 77.4556 117.707 77.3667C117.912 77.2778 118.134 77.2334 118.373 77.2334C118.637 77.2334 118.869 77.2778 119.067 77.3667C119.265 77.4556 119.429 77.5809 119.559 77.7427C119.691 77.9022 119.789 78.0924 119.853 78.3135C119.919 78.5345 119.952 78.7783 119.952 79.0449V79.397H117.095V78.8057H119.139V78.7407C119.134 78.5926 119.104 78.4536 119.05 78.3237C118.997 78.1938 118.917 78.089 118.807 78.0093C118.698 77.9295 118.552 77.8896 118.37 77.8896C118.233 77.8896 118.111 77.9193 118.004 77.9785C117.899 78.0355 117.811 78.1187 117.741 78.228C117.67 78.3374 117.615 78.4696 117.577 78.6245C117.54 78.7772 117.522 78.9492 117.522 79.1406V79.2773C117.522 79.4391 117.544 79.5895 117.587 79.7285C117.632 79.8652 117.699 79.9849 117.785 80.0874C117.872 80.1899 117.977 80.2708 118.1 80.3301C118.223 80.387 118.363 80.4155 118.52 80.4155C118.718 80.4155 118.895 80.3757 119.05 80.2959C119.205 80.2161 119.339 80.1034 119.453 79.9575L119.887 80.3779C119.807 80.4941 119.704 80.6058 119.576 80.7129C119.449 80.8177 119.292 80.9032 119.108 80.9692C118.926 81.0353 118.714 81.0684 118.472 81.0684ZM122.105 80.4121C122.24 80.4121 122.361 80.3859 122.468 80.3335C122.577 80.2788 122.665 80.2036 122.731 80.1079C122.799 80.0122 122.837 79.9017 122.844 79.7764H123.62C123.615 80.0156 123.544 80.2332 123.408 80.4292C123.271 80.6252 123.09 80.7812 122.864 80.8975C122.639 81.0114 122.389 81.0684 122.116 81.0684C121.833 81.0684 121.587 81.0205 121.377 80.9248C121.168 80.8268 120.993 80.6924 120.854 80.5215C120.715 80.3506 120.611 80.1535 120.54 79.9302C120.472 79.7069 120.438 79.4676 120.438 79.2124V79.0928C120.438 78.8376 120.472 78.5983 120.54 78.375C120.611 78.1494 120.715 77.9512 120.854 77.7803C120.993 77.6094 121.168 77.4761 121.377 77.3804C121.587 77.2824 121.832 77.2334 122.112 77.2334C122.409 77.2334 122.668 77.2926 122.892 77.4111C123.115 77.5273 123.29 77.6903 123.418 77.8999C123.548 78.1073 123.615 78.3488 123.62 78.6245H122.844C122.837 78.4878 122.803 78.3647 122.741 78.2554C122.682 78.1437 122.598 78.0549 122.488 77.9888C122.381 77.9227 122.252 77.8896 122.102 77.8896C121.936 77.8896 121.798 77.9238 121.688 77.9922C121.579 78.0583 121.494 78.1494 121.432 78.2656C121.371 78.3796 121.326 78.5083 121.299 78.6519C121.274 78.7931 121.261 78.9401 121.261 79.0928V79.2124C121.261 79.3651 121.274 79.5132 121.299 79.6567C121.324 79.8003 121.367 79.929 121.429 80.043C121.493 80.1546 121.579 80.2446 121.688 80.313C121.798 80.3791 121.937 80.4121 122.105 80.4121ZM125.968 77.3018V81H125.141V77.3018H125.968ZM127.181 77.3018V77.9512H123.948V77.3018H127.181ZM127.444 79.1919V79.1133C127.444 78.8467 127.483 78.5994 127.561 78.3716C127.638 78.1414 127.75 77.9421 127.896 77.7734C128.044 77.6025 128.224 77.4704 128.436 77.377C128.65 77.2812 128.891 77.2334 129.16 77.2334C129.431 77.2334 129.673 77.2812 129.885 77.377C130.099 77.4704 130.28 77.6025 130.428 77.7734C130.576 77.9421 130.689 78.1414 130.767 78.3716C130.844 78.5994 130.883 78.8467 130.883 79.1133V79.1919C130.883 79.4585 130.844 79.7057 130.767 79.9336C130.689 80.1615 130.576 80.3608 130.428 80.5317C130.28 80.7004 130.1 80.8325 129.888 80.9282C129.676 81.0216 129.436 81.0684 129.167 81.0684C128.896 81.0684 128.653 81.0216 128.439 80.9282C128.227 80.8325 128.047 80.7004 127.899 80.5317C127.751 80.3608 127.638 80.1615 127.561 79.9336C127.483 79.7057 127.444 79.4585 127.444 79.1919ZM128.268 79.1133V79.1919C128.268 79.3582 128.285 79.5155 128.319 79.6636C128.354 79.8117 128.407 79.9416 128.48 80.0532C128.553 80.1649 128.646 80.2526 128.76 80.3164C128.874 80.3802 129.01 80.4121 129.167 80.4121C129.32 80.4121 129.452 80.3802 129.563 80.3164C129.677 80.2526 129.771 80.1649 129.844 80.0532C129.917 79.9416 129.97 79.8117 130.004 79.6636C130.041 79.5155 130.059 79.3582 130.059 79.1919V79.1133C130.059 78.9492 130.041 78.7943 130.004 78.6484C129.97 78.5003 129.916 78.3693 129.84 78.2554C129.767 78.1414 129.674 78.0526 129.56 77.9888C129.448 77.9227 129.315 77.8896 129.16 77.8896C129.005 77.8896 128.871 77.9227 128.757 77.9888C128.645 78.0526 128.553 78.1414 128.48 78.2554C128.407 78.3693 128.354 78.5003 128.319 78.6484C128.285 78.7943 128.268 78.9492 128.268 79.1133ZM133.371 79.4175H132.188L132.182 78.8364H133.152C133.312 78.8364 133.443 78.8205 133.545 78.7886C133.65 78.7567 133.728 78.7088 133.778 78.645C133.828 78.5789 133.853 78.4992 133.853 78.4058C133.853 78.3283 133.838 78.2611 133.809 78.2041C133.779 78.1449 133.733 78.097 133.672 78.0605C133.613 78.0218 133.537 77.9945 133.446 77.9785C133.357 77.9603 133.254 77.9512 133.135 77.9512H132.462V81H131.638V77.3018H133.135C133.372 77.3018 133.585 77.3223 133.774 77.3633C133.966 77.4043 134.129 77.467 134.263 77.5513C134.398 77.6356 134.5 77.7427 134.571 77.8726C134.644 78.0002 134.68 78.1506 134.68 78.3237C134.68 78.4377 134.655 78.5448 134.605 78.645C134.557 78.7453 134.485 78.8341 134.39 78.9116C134.294 78.9891 134.177 79.0529 134.038 79.103C133.899 79.1509 133.739 79.1805 133.559 79.1919L133.371 79.4175ZM133.371 81H131.949L132.277 80.3506H133.371C133.517 80.3506 133.638 80.3324 133.733 80.2959C133.829 80.2594 133.9 80.207 133.945 80.1387C133.993 80.068 134.017 79.9849 134.017 79.8892C134.017 79.7912 133.994 79.7069 133.949 79.6362C133.903 79.5656 133.833 79.512 133.737 79.4756C133.643 79.4368 133.521 79.4175 133.371 79.4175H132.431L132.438 78.8364H133.556L133.792 79.062C134.026 79.078 134.221 79.1281 134.376 79.2124C134.531 79.2967 134.647 79.4027 134.725 79.5303C134.802 79.6579 134.841 79.7969 134.841 79.9473C134.841 80.1204 134.808 80.2731 134.742 80.4053C134.678 80.5374 134.582 80.6479 134.455 80.7368C134.329 80.8234 134.175 80.8895 133.993 80.9351C133.811 80.9784 133.604 81 133.371 81ZM136.164 78.4775H137.254C137.573 78.4775 137.844 78.5311 138.067 78.6382C138.291 78.7453 138.46 78.8945 138.577 79.0859C138.695 79.2751 138.754 79.4915 138.754 79.7354C138.754 79.9154 138.721 80.0828 138.655 80.2378C138.589 80.3905 138.491 80.5238 138.361 80.6377C138.234 80.7516 138.076 80.8405 137.89 80.9043C137.705 80.9681 137.493 81 137.254 81H135.617V77.3018H136.444V80.3472H137.254C137.418 80.3472 137.549 80.3187 137.647 80.2617C137.745 80.2048 137.816 80.1307 137.859 80.0396C137.904 79.9484 137.927 79.8516 137.927 79.749C137.927 79.6442 137.904 79.5451 137.859 79.4517C137.816 79.3582 137.745 79.2819 137.647 79.2227C137.549 79.1634 137.418 79.1338 137.254 79.1338H136.164V78.4775ZM140.21 77.3018V81H139.387V77.3018H140.21ZM142.036 79.7969L143.488 77.3018H144.312V81H143.488V78.5015L142.036 81H141.212V77.3018H142.036V79.7969ZM143.27 75.8799H143.881C143.881 76.069 143.836 76.2365 143.745 76.3823C143.656 76.5259 143.528 76.6387 143.362 76.7207C143.198 76.8027 143.002 76.8438 142.774 76.8438C142.43 76.8438 142.158 76.7549 141.957 76.5771C141.759 76.3971 141.66 76.1647 141.66 75.8799H142.271C142.271 76.0075 142.309 76.1203 142.384 76.2183C142.462 76.314 142.592 76.3618 142.774 76.3618C142.954 76.3618 143.082 76.314 143.157 76.2183C143.232 76.1203 143.27 76.0075 143.27 75.8799ZM148.438 80.4121C148.572 80.4121 148.693 80.3859 148.8 80.3335C148.909 80.2788 148.997 80.2036 149.063 80.1079C149.131 80.0122 149.169 79.9017 149.176 79.7764H149.952C149.947 80.0156 149.876 80.2332 149.74 80.4292C149.603 80.6252 149.422 80.7812 149.196 80.8975C148.971 81.0114 148.721 81.0684 148.448 81.0684C148.165 81.0684 147.919 81.0205 147.709 80.9248C147.5 80.8268 147.326 80.6924 147.187 80.5215C147.048 80.3506 146.943 80.1535 146.872 79.9302C146.804 79.7069 146.77 79.4676 146.77 79.2124V79.0928C146.77 78.8376 146.804 78.5983 146.872 78.375C146.943 78.1494 147.048 77.9512 147.187 77.7803C147.326 77.6094 147.5 77.4761 147.709 77.3804C147.919 77.2824 148.164 77.2334 148.444 77.2334C148.741 77.2334 149 77.2926 149.224 77.4111C149.447 77.5273 149.622 77.6903 149.75 77.8999C149.88 78.1073 149.947 78.3488 149.952 78.6245H149.176C149.169 78.4878 149.135 78.3647 149.073 78.2554C149.014 78.1437 148.93 78.0549 148.82 77.9888C148.713 77.9227 148.584 77.8896 148.434 77.8896C148.268 77.8896 148.13 77.9238 148.021 77.9922C147.911 78.0583 147.826 78.1494 147.764 78.2656C147.703 78.3796 147.658 78.5083 147.631 78.6519C147.606 78.7931 147.593 78.9401 147.593 79.0928V79.2124C147.593 79.3651 147.606 79.5132 147.631 79.6567C147.656 79.8003 147.699 79.929 147.761 80.043C147.825 80.1546 147.911 80.2446 148.021 80.313C148.13 80.3791 148.269 80.4121 148.438 80.4121ZM152.214 81.0684C151.941 81.0684 151.694 81.0239 151.473 80.9351C151.254 80.8439 151.067 80.7174 150.912 80.5557C150.759 80.3939 150.642 80.2036 150.56 79.9849C150.478 79.7661 150.437 79.5303 150.437 79.2773V79.1406C150.437 78.8512 150.479 78.5892 150.563 78.3545C150.648 78.1198 150.765 77.9193 150.916 77.7529C151.066 77.5843 151.244 77.4556 151.449 77.3667C151.654 77.2778 151.876 77.2334 152.115 77.2334C152.38 77.2334 152.611 77.2778 152.809 77.3667C153.007 77.4556 153.171 77.5809 153.301 77.7427C153.433 77.9022 153.531 78.0924 153.595 78.3135C153.661 78.5345 153.694 78.7783 153.694 79.0449V79.397H150.837V78.8057H152.881V78.7407C152.876 78.5926 152.847 78.4536 152.792 78.3237C152.74 78.1938 152.659 78.089 152.549 78.0093C152.44 77.9295 152.294 77.8896 152.112 77.8896C151.975 77.8896 151.853 77.9193 151.746 77.9785C151.641 78.0355 151.554 78.1187 151.483 78.228C151.412 78.3374 151.358 78.4696 151.319 78.6245C151.282 78.7772 151.264 78.9492 151.264 79.1406V79.2773C151.264 79.4391 151.286 79.5895 151.329 79.7285C151.375 79.8652 151.441 79.9849 151.527 80.0874C151.614 80.1899 151.719 80.2708 151.842 80.3301C151.965 80.387 152.105 80.4155 152.262 80.4155C152.46 80.4155 152.637 80.3757 152.792 80.2959C152.947 80.2161 153.081 80.1034 153.195 79.9575L153.629 80.3779C153.55 80.4941 153.446 80.6058 153.318 80.7129C153.191 80.8177 153.035 80.9032 152.85 80.9692C152.668 81.0353 152.456 81.0684 152.214 81.0684ZM155.164 78.0127V82.4219H154.34V77.3018H155.099L155.164 78.0127ZM157.574 79.1167V79.1885C157.574 79.4574 157.542 79.7069 157.478 79.937C157.417 80.1649 157.324 80.3643 157.201 80.5352C157.08 80.7038 156.931 80.8348 156.753 80.9282C156.576 81.0216 156.371 81.0684 156.138 81.0684C155.908 81.0684 155.706 81.0262 155.533 80.9419C155.362 80.8553 155.218 80.7334 155.099 80.5762C154.981 80.4189 154.885 80.2344 154.812 80.0225C154.741 79.8083 154.691 79.5736 154.662 79.3184V79.0415C154.691 78.7703 154.741 78.5243 154.812 78.3032C154.885 78.0822 154.981 77.8919 155.099 77.7324C155.218 77.5729 155.362 77.4499 155.533 77.3633C155.704 77.2767 155.903 77.2334 156.131 77.2334C156.364 77.2334 156.57 77.279 156.75 77.3701C156.93 77.459 157.082 77.5866 157.205 77.7529C157.328 77.917 157.42 78.1152 157.481 78.3477C157.543 78.5778 157.574 78.8341 157.574 79.1167ZM156.75 79.1885V79.1167C156.75 78.9458 156.734 78.7874 156.702 78.6416C156.67 78.4935 156.62 78.3636 156.552 78.252C156.483 78.1403 156.396 78.0537 156.289 77.9922C156.184 77.9284 156.057 77.8965 155.909 77.8965C155.763 77.8965 155.638 77.9215 155.533 77.9717C155.428 78.0195 155.341 78.0868 155.27 78.1733C155.199 78.2599 155.145 78.3613 155.106 78.4775C155.067 78.5915 155.04 78.7157 155.024 78.8501V79.5132C155.051 79.6772 155.098 79.8276 155.164 79.9644C155.23 80.1011 155.324 80.2104 155.444 80.2925C155.567 80.3722 155.725 80.4121 155.916 80.4121C156.064 80.4121 156.191 80.3802 156.295 80.3164C156.4 80.2526 156.486 80.1649 156.552 80.0532C156.62 79.9393 156.67 79.8083 156.702 79.6602C156.734 79.512 156.75 79.3548 156.75 79.1885ZM160.072 79.4175H158.89L158.883 78.8364H159.854C160.013 78.8364 160.144 78.8205 160.247 78.7886C160.351 78.7567 160.429 78.7088 160.479 78.645C160.529 78.5789 160.554 78.4992 160.554 78.4058C160.554 78.3283 160.539 78.2611 160.51 78.2041C160.48 78.1449 160.435 78.097 160.373 78.0605C160.314 78.0218 160.239 77.9945 160.147 77.9785C160.059 77.9603 159.955 77.9512 159.836 77.9512H159.163V81H158.339V77.3018H159.836C160.073 77.3018 160.286 77.3223 160.476 77.3633C160.667 77.4043 160.83 77.467 160.964 77.5513C161.099 77.6356 161.201 77.7427 161.272 77.8726C161.345 78.0002 161.381 78.1506 161.381 78.3237C161.381 78.4377 161.356 78.5448 161.306 78.645C161.258 78.7453 161.187 78.8341 161.091 78.9116C160.995 78.9891 160.878 79.0529 160.739 79.103C160.6 79.1509 160.44 79.1805 160.26 79.1919L160.072 79.4175ZM160.072 81H158.65L158.979 80.3506H160.072C160.218 80.3506 160.339 80.3324 160.435 80.2959C160.53 80.2594 160.601 80.207 160.646 80.1387C160.694 80.068 160.718 79.9849 160.718 79.8892C160.718 79.7912 160.695 79.7069 160.65 79.6362C160.604 79.5656 160.534 79.512 160.438 79.4756C160.345 79.4368 160.223 79.4175 160.072 79.4175H159.132L159.139 78.8364H160.257L160.493 79.062C160.727 79.078 160.922 79.1281 161.077 79.2124C161.232 79.2967 161.348 79.4027 161.426 79.5303C161.503 79.6579 161.542 79.7969 161.542 79.9473C161.542 80.1204 161.509 80.2731 161.443 80.4053C161.379 80.5374 161.283 80.6479 161.156 80.7368C161.03 80.8234 160.877 80.8895 160.694 80.9351C160.512 80.9784 160.305 81 160.072 81ZM163.883 81.0684C163.61 81.0684 163.363 81.0239 163.142 80.9351C162.923 80.8439 162.736 80.7174 162.581 80.5557C162.428 80.3939 162.311 80.2036 162.229 79.9849C162.147 79.7661 162.106 79.5303 162.106 79.2773V79.1406C162.106 78.8512 162.148 78.5892 162.232 78.3545C162.317 78.1198 162.434 77.9193 162.584 77.7529C162.735 77.5843 162.913 77.4556 163.118 77.3667C163.323 77.2778 163.545 77.2334 163.784 77.2334C164.049 77.2334 164.28 77.2778 164.478 77.3667C164.676 77.4556 164.84 77.5809 164.97 77.7427C165.102 77.9022 165.2 78.0924 165.264 78.3135C165.33 78.5345 165.363 78.7783 165.363 79.0449V79.397H162.506V78.8057H164.55V78.7407C164.545 78.5926 164.516 78.4536 164.461 78.3237C164.409 78.1938 164.328 78.089 164.218 78.0093C164.109 77.9295 163.963 77.8896 163.781 77.8896C163.644 77.8896 163.522 77.9193 163.415 77.9785C163.31 78.0355 163.222 78.1187 163.152 78.228C163.081 78.3374 163.027 78.4696 162.988 78.6245C162.951 78.7772 162.933 78.9492 162.933 79.1406V79.2773C162.933 79.4391 162.955 79.5895 162.998 79.7285C163.044 79.8652 163.11 79.9849 163.196 80.0874C163.283 80.1899 163.388 80.2708 163.511 80.3301C163.634 80.387 163.774 80.4155 163.931 80.4155C164.129 80.4155 164.306 80.3757 164.461 80.2959C164.616 80.2161 164.75 80.1034 164.864 79.9575L165.298 80.3779C165.219 80.4941 165.115 80.6058 164.987 80.7129C164.86 80.8177 164.704 80.9032 164.519 80.9692C164.337 81.0353 164.125 81.0684 163.883 81.0684ZM166.833 78.0127V82.4219H166.009V77.3018H166.768L166.833 78.0127ZM169.243 79.1167V79.1885C169.243 79.4574 169.211 79.7069 169.147 79.937C169.085 80.1649 168.993 80.3643 168.87 80.5352C168.749 80.7038 168.6 80.8348 168.422 80.9282C168.245 81.0216 168.04 81.0684 167.807 81.0684C167.577 81.0684 167.375 81.0262 167.202 80.9419C167.031 80.8553 166.887 80.7334 166.768 80.5762C166.65 80.4189 166.554 80.2344 166.481 80.0225C166.41 79.8083 166.36 79.5736 166.331 79.3184V79.0415C166.36 78.7703 166.41 78.5243 166.481 78.3032C166.554 78.0822 166.65 77.8919 166.768 77.7324C166.887 77.5729 167.031 77.4499 167.202 77.3633C167.373 77.2767 167.572 77.2334 167.8 77.2334C168.033 77.2334 168.239 77.279 168.419 77.3701C168.599 77.459 168.75 77.5866 168.874 77.7529C168.997 77.917 169.089 78.1152 169.15 78.3477C169.212 78.5778 169.243 78.8341 169.243 79.1167ZM168.419 79.1885V79.1167C168.419 78.9458 168.403 78.7874 168.371 78.6416C168.339 78.4935 168.289 78.3636 168.221 78.252C168.152 78.1403 168.065 78.0537 167.958 77.9922C167.853 77.9284 167.726 77.8965 167.578 77.8965C167.432 77.8965 167.307 77.9215 167.202 77.9717C167.097 78.0195 167.01 78.0868 166.939 78.1733C166.868 78.2599 166.814 78.3613 166.775 78.4775C166.736 78.5915 166.709 78.7157 166.693 78.8501V79.5132C166.72 79.6772 166.767 79.8276 166.833 79.9644C166.899 80.1011 166.993 80.2104 167.113 80.2925C167.236 80.3722 167.394 80.4121 167.585 80.4121C167.733 80.4121 167.86 80.3802 167.964 80.3164C168.069 80.2526 168.155 80.1649 168.221 80.0532C168.289 79.9393 168.339 79.8083 168.371 79.6602C168.403 79.512 168.419 79.3548 168.419 79.1885Z" fill="#C99D3E"/>
</svg>
